<?xml version="1.0" encoding="UTF-8" standalone="no"?><!DOCTYPE svg PUBLIC "-//W3C//DTD SVG 1.1//EN" "http://www.w3.org/Graphics/SVG/1.1/DTD/svg11.dtd"><svg width="100%" height="100%" viewBox="0 0 100 100" version="1.1" xmlns="http://www.w3.org/2000/svg" xmlns:xlink="http://www.w3.org/1999/xlink" xml:space="preserve" xmlns:serif="http://www.serif.com/" style="fill-rule:evenodd;clip-rule:evenodd;stroke-linejoin:round;stroke-miterlimit:2;"><path d="M100,50.304c0,-27.612 -22.388,-50 -50,-50c-27.612,0 -50,22.388 -50,50c0,24.959 18.283,45.642 42.188,49.392l-0.001,-34.938l-12.695,0l-0,-14.458l12.695,0l0,-11.008c0,-12.529 7.467,-19.454 18.888,-19.454c5.467,-0 11.192,0.979 11.192,0.979l-0,12.304l-6.309,-0c-6.212,-0 -8.15,3.854 -8.15,7.808l0,9.375l13.867,0l-2.217,14.459l-11.65,-0l0,34.937c23.909,-3.754 42.192,-24.442 42.192,-49.396Z" style="fill:#1877f2;fill-rule:nonzero;"/></svg>