<?xml version="1.0" encoding="UTF-8" standalone="no"?><!DOCTYPE svg PUBLIC "-//W3C//DTD SVG 1.1//EN" "http://www.w3.org/Graphics/SVG/1.1/DTD/svg11.dtd"><svg width="100%" height="100%" viewBox="0 0 100 100" version="1.1" xmlns="http://www.w3.org/2000/svg" xmlns:xlink="http://www.w3.org/1999/xlink" xml:space="preserve" xmlns:serif="http://www.serif.com/" style="fill-rule:evenodd;clip-rule:evenodd;stroke-linejoin:round;stroke-miterlimit:2;"><path d="M76.863,87.233l-53.725,0l-0,-5.316l53.725,-0l-0.001,5.316Zm10.526,-87.233l-47.759,0l0,27.125l0.434,0c4.108,-5.317 9.191,-5.833 14.741,-5.442c8.196,0.488 16.209,5.609 16.738,21.538l-0,30.508c-0,0.371 -0.209,0.738 -0.575,0.738l-9.542,-0c-0.375,-0 -1.054,-0.342 -1.054,-0.738l-0,-29.562c-0,-7.429 -2.417,-12.98 -9.754,-12.98c-5.342,0 -10.988,3.717 -10.988,11.542l0,30.904c0,0.371 -0.033,0.3 -0.425,0.3l-9.542,0c-0.375,0 -1.208,0.092 -1.208,-0.3l0,-73.633l-15.212,0c-3.513,0 -6.588,2.804 -6.588,6.313l0,87.483c0,3.512 3.075,6.204 6.584,6.204l74.154,0c3.512,0 5.962,-2.692 5.962,-6.204l0,-87.484c0,-3.508 -2.45,-6.312 -5.958,-6.312" style="fill:#2c3454;fill-rule:nonzero;"/></svg>