<?xml version="1.0" encoding="UTF-8" standalone="no"?><!DOCTYPE svg PUBLIC "-//W3C//DTD SVG 1.1//EN" "http://www.w3.org/Graphics/SVG/1.1/DTD/svg11.dtd"><svg width="100%" height="100%" viewBox="0 0 100 100" version="1.1" xmlns="http://www.w3.org/2000/svg" xmlns:xlink="http://www.w3.org/1999/xlink" xml:space="preserve" xmlns:serif="http://www.serif.com/" style="fill-rule:evenodd;clip-rule:evenodd;stroke-linejoin:round;stroke-miterlimit:2;"><path d="M99.804,19.042c-3.744,1.648 -7.71,2.736 -11.771,3.229c4.275,-2.569 7.477,-6.601 9.013,-11.346c-3.963,2.313 -8.354,3.996 -13.029,4.933c-3.875,-4.143 -9.301,-6.498 -14.973,-6.498c-11.246,0 -20.5,9.254 -20.5,20.5c-0,1.574 0.181,3.142 0.539,4.673c-17.041,-0.804 -32.137,-8.991 -42.25,-21.358c-1.838,3.124 -2.797,6.688 -2.775,10.313c0,7.125 3.625,13.387 9.117,17.066c-3.255,-0.103 -6.438,-0.984 -9.283,-2.566l-0,0.25c-0.004,9.725 6.909,18.182 16.441,20.112c-3.007,0.806 -6.156,0.927 -9.216,0.354c2.693,8.333 10.427,14.073 19.183,14.238c-7.251,5.69 -16.208,8.78 -25.425,8.77c-1.625,0.001 -3.246,-0.095 -4.875,-0.279c9.398,6.018 20.328,9.213 31.487,9.204c37.721,0.001 58.325,-31.233 58.325,-58.27c0,-0.875 0,-1.75 -0.062,-2.625c4.025,-2.897 7.497,-6.493 10.25,-10.617l-0.196,-0.083Z" style="fill:#1da1f2;fill-rule:nonzero;"/></svg>